<svg id="Layer_1" data-name="Layer 1" xmlns="http://www.w3.org/2000/svg" viewBox="0 0 756.14 894.23"><path d="M798.55,306c-4.74-34.07-13.19-66.12-30.25-94.93C718.6,127.09,644.38,79.59,548,67.47c-54.68-6.87-108.16-.3-158.68,22.72C311.6,125.6,256.62,181.78,233,265.53c-4.11,14.61-6.74,29.64-10.12,44.79-1.56-.36-3.19-.61-4.73-1.12-16.45-5.46-33.24-5.88-50.17-3.15-19.14,3.08-36.43,22.08-33.8,38.85,1.65,10.58,5.66,21.05,10.18,30.85,3.65,7.89,9.45,14.85,14.64,22,17.41,23.88,35.09,47.56,52.43,71.49,6.79,9.36,12.25,19.6,12,31.55-.35,20.71.34,41.62-2.35,62.07-3.73,28.32-1.45,56.26,2.12,84.08,4.18,32.61,19.42,61.54,34.4,90.31a20.5,20.5,0,0,0,1.94,3c4.06,5.31,5.79,5.11,9.08-.61,2.48-4.32,4.8-8.87,8-12.61,5.43-6.32,12.34-6.6,17.78-.32a75.36,75.36,0,0,1,11.75,17.64c5.13,11.25,8.93,23.09,13.66,34.53C323.13,786.7,327,794.3,331,803c5.23-4.36,9.38-8.21,13.93-11.51,9-6.55,17.84-4.73,23.54,4.75a152.44,152.44,0,0,1,7.76,14.48c7.88,17.07,15,34.51,23.52,51.27,5.51,10.86,12.86,20.79,19.39,31.13l2.28-1a66.18,66.18,0,0,1,1.37-8.24c2.67-9.08,4.38-18.7,8.61-27,9.92-19.5,29.89-22.81,45.12-7,7.39,7.66,12.75,17.68,17.55,27.37,11.09,22.42,15.17,47,20,71.26.67,3.37,1.43,6.72,2.15,10.08l2.21.6c1.88-3,4-5.92,5.62-9C534.45,930.52,544.83,911,555,891.34c6.15-11.91,16.41-14.36,28.37-12.81,3.6.46,7,2.22,10.59,3.39,6.17-21.1,19.12-37.84,34.08-53,11.25-11.43,21.79-9.81,30.47,3.78,2.17,3.38,3.69,7.19,5.44,10.83,1.06,2.22,2,4.5,3.67,8.26,4.39-10.46,8.53-19,11.62-28,4.1-11.91,7.33-24.11,11-36.16,6.21-20.22,10.93-41.06,23.41-58.74,6.28-8.9,17.19-9.3,24.26-.93a79,79,0,0,1,7.48,11.3c3.31,5.68,6.33,11.52,9.73,17.75,1.25-1.51,2.06-2.36,2.73-3.32,26.91-38.51,42-81,42.53-128.22.4-37.19.8-74.42-.49-111.57-.74-21.1,5.39-38.05,18.54-54.33,19.45-24.07,37.71-49.17,55.28-74.65,6.62-9.59,11.32-21.09,14.43-32.39,5.78-21-1.56-34.85-21.86-42.54-7.35-2.79-15.74-3.52-23.71-3.83C827.89,305.53,813.15,306,798.55,306Z" transform="translate(-133.93 -64.88)" style="fill:#fff"/><path d="M630.52,346.91c37.27.75,60.38-26.38,53-60.69-2.37-11-8.42-16-18.91-12.61C647.94,279,631.8,286,615.7,292.86c-3.73,1.59-7,5-9.63,8.29-8.29,10.33-8,22.2-4,33.83,3.61,10.38,13.38,10.86,22.53,11.56C627,346.72,629.38,346.84,630.52,346.91Zm-241.16,0c2.59-.21,7.6-.38,12.53-1.09,7.87-1.14,13.8-5,16.2-13,5-16.91.18-32.3-15.52-40.31-15.12-7.72-31.33-13.56-47.53-18.77-11.06-3.57-17.72,1.94-19.61,13.46C329.65,322.24,351.42,347.5,389.36,346.89Z" transform="translate(-133.93 -64.88)"/></svg>