<svg id="Layer_1" data-name="Layer 1" xmlns="http://www.w3.org/2000/svg" viewBox="0 0 300 300"><g id="zAwxcp.tif"><path d="M226,112.48c5.66,0,10.82-.77,15.63.19,7.14,1.42,10.38,7.59,7.81,14.45a70.2,70.2,0,0,1-7.46,14c-4.41,6.61-9.44,12.81-13.95,19.36a11.14,11.14,0,0,0-1.72,5.9c-.13,14.61.06,29.22-.09,43.83-.15,14.42-5.62,26.8-15.38,37.27a23.34,23.34,0,0,1-6.35,4.7c-4.74,2.43-8.49.8-10-4.37a37.31,37.31,0,0,1-1.22-8.32c-.5-8.13-4.94-12.78-13.05-13.42-9.13-.72-16.24,3.92-17.66,11.7-.53,2.94-.54,6-1,8.9-1.12,6.63-5.88,11.37-11.27,11.44s-10.25-4.72-11.47-11.27a52,52,0,0,1-.43-5.45,18.91,18.91,0,0,0-22.08-17c-5.65,1-9.09,5-9.63,11.06-.33,3.63-.4,7.35-1.29,10.85-1.72,6.75-6.85,8.91-12.38,4.73A45.13,45.13,0,0,1,82.6,239.8,51.12,51.12,0,0,1,74.53,211c.09-14.78.17-29.56-.07-44.33a15,15,0,0,0-2.67-7.54C66.38,151,60.64,143,55.05,135a21.33,21.33,0,0,1-1.69-3c-2.4-5.09-4.48-10.4-.33-15.41S63,111,69,112a53,53,0,0,1,5.55,1.58c2.2-20.93,11-38.46,27-52A73.17,73.17,0,0,1,145.07,44c20.62-1.32,39,4.77,54.72,18.25S223.82,93.13,226,112.48Zm-76.39,47.45c5.69.32,10.55-3.57,10.81-8.65.25-4.9-3.92-9.1-9.47-9.54-5.71-.45-11,3.83-11.16,8.95C139.65,155.49,144,159.62,149.57,159.93Zm34.84-45.19c0-6.25-2.25-9.16-7.14-9.2s-7.39,3.15-7.37,9.09,2.49,9.22,7.25,9.25S184.4,120.91,184.41,114.74Zm-53-1.4c-.11-5.93-2.72-9-7.63-8.82-4.65.12-7.14,3.48-7,9.44s2.8,9,7.62,8.87C128.94,122.68,131.47,119.27,131.37,113.34Z" style="fill:#fff"/><path d="M149.57,159.93c-5.53-.31-9.92-4.44-9.82-9.24.12-5.12,5.45-9.4,11.16-8.95,5.55.44,9.72,4.64,9.47,9.54C160.12,156.36,155.26,160.25,149.57,159.93Z"/><path d="M184.41,114.74c0,6.17-2.39,9.17-7.26,9.14s-7.23-3.18-7.25-9.25,2.57-9.13,7.37-9.09S184.41,108.49,184.41,114.74Z"/><path d="M131.37,113.34c.1,5.93-2.43,9.34-7,9.49-4.82.16-7.5-3-7.62-8.87s2.37-9.32,7-9.44C128.65,104.38,131.26,107.41,131.37,113.34Z"/></g></svg>